<?xml version="1.0" encoding="utf-8"?>
<!-- Generator: Adobe Illustrator 27.3.1, SVG Export Plug-In . SVG Version: 6.00 Build 0)  -->
<svg version="1.1" id="Ebene_1" xmlns="http://www.w3.org/2000/svg" xmlns:xlink="http://www.w3.org/1999/xlink" x="0px" y="0px"
	 viewBox="0 0 72.69 84.68" style="enable-background:new 0 0 72.69 84.68;" xml:space="preserve">
<style type="text/css">
	.st0{fill:#151515;}
	.st1{fill:#C90130;}
</style>
<g>
	<path class="st0" d="M69.98,68.54h-1.9v1.94h1.9V68.54z M66.5,83.6h5.05v-1.22l-1.57-0.27v-8.96H66.5v1.23l1.57,0.27v7.46
		l-1.57,0.27V83.6z M60.59,70.64v2.52h-1.65v1.41h1.65v6.34c0,1,0.23,1.73,0.69,2.2c0.46,0.47,1.07,0.7,1.84,0.7
		c0.35,0,0.7-0.04,1.04-0.11c0.35-0.07,0.61-0.17,0.79-0.29l-0.26-1.3c-0.14,0.03-0.32,0.06-0.53,0.09
		c-0.21,0.03-0.4,0.04-0.56,0.04c-0.34,0-0.6-0.1-0.81-0.3c-0.2-0.2-0.3-0.54-0.3-1.03v-6.34h1.98v-1.41h-1.98v-2.52H60.59z
		 M53.37,70.64v2.52h-1.65v1.41h1.65v6.34c0,1,0.23,1.73,0.69,2.2c0.46,0.47,1.07,0.7,1.84,0.7c0.35,0,0.7-0.04,1.04-0.11
		c0.35-0.07,0.61-0.17,0.79-0.29l-0.26-1.3c-0.14,0.03-0.32,0.06-0.53,0.09c-0.21,0.03-0.4,0.04-0.56,0.04c-0.34,0-0.6-0.1-0.81-0.3
		c-0.2-0.2-0.3-0.54-0.3-1.03v-6.34h1.98v-1.41h-1.98v-2.52H53.37z M47.88,75.21c0.4,0.5,0.6,1.13,0.6,1.87v0.25h-4.82l-0.02-0.05
		c0.1-0.81,0.38-1.49,0.83-2.02c0.45-0.54,1-0.81,1.63-0.81C46.89,74.46,47.48,74.71,47.88,75.21 M48.61,83.43
		c0.61-0.25,1.11-0.55,1.48-0.91l-0.74-1.24c-0.35,0.32-0.77,0.57-1.26,0.76c-0.49,0.18-1.05,0.27-1.69,0.27
		c-0.88,0-1.57-0.32-2.06-0.97c-0.49-0.65-0.74-1.47-0.76-2.48l0.03-0.05h6.78v-1.19c0-1.41-0.36-2.55-1.09-3.4
		c-0.72-0.85-1.79-1.27-3.19-1.27c-1.21,0-2.26,0.49-3.14,1.48c-0.89,0.99-1.33,2.23-1.33,3.71v0.43c0,1.54,0.43,2.8,1.29,3.77
		s2.02,1.45,3.47,1.45C47.26,83.81,47.99,83.68,48.61,83.43 M36.45,74.57v7.55l-1.57,0.27v1.22h5.05v-1.22l-1.57-0.27v-7.55h2.18
		v-1.41h-2.18v-1.32c0-0.63,0.14-1.11,0.41-1.44c0.27-0.33,0.69-0.5,1.25-0.5c0.17,0,0.34,0.01,0.51,0.03
		c0.16,0.02,0.3,0.04,0.42,0.07l0.23-1.45c-0.27-0.06-0.52-0.11-0.74-0.15c-0.22-0.04-0.44-0.05-0.66-0.05
		c-1.04,0-1.86,0.3-2.44,0.91c-0.58,0.61-0.87,1.47-0.87,2.58v1.32h-1.63v1.41H36.45z M21.79,83.6h5.05v-1.22l-1.57-0.27v-6.13
		c0.25-0.46,0.59-0.82,1.01-1.08c0.42-0.26,0.91-0.4,1.45-0.4c0.75,0,1.3,0.19,1.67,0.58c0.36,0.39,0.54,1.04,0.54,1.96v5.07
		l-1.57,0.27v1.22h5.05v-1.22l-1.57-0.27v-5.11c0-1.38-0.31-2.4-0.93-3.06c-0.62-0.66-1.49-0.99-2.62-0.99
		c-0.67,0-1.27,0.15-1.79,0.46c-0.53,0.31-0.96,0.74-1.31,1.29l-0.14-1.55h-3.27v1.23l1.57,0.27v7.46l-1.57,0.27V83.6z M13.21,78.28
		c0-1.09,0.23-2,0.69-2.73c0.46-0.73,1.15-1.09,2.07-1.09c0.91,0,1.61,0.36,2.08,1.09c0.47,0.73,0.71,1.64,0.71,2.73v0.21
		c0,1.11-0.24,2.02-0.71,2.74c-0.47,0.72-1.16,1.08-2.06,1.08c-0.92,0-1.61-0.36-2.08-1.08c-0.47-0.72-0.7-1.63-0.7-2.74V78.28z
		 M11.3,78.5c0,1.55,0.42,2.82,1.26,3.82c0.84,0.99,1.98,1.49,3.43,1.49c1.43,0,2.57-0.5,3.41-1.49c0.84-0.99,1.26-2.27,1.26-3.82
		v-0.21c0-1.55-0.42-2.83-1.26-3.82c-0.84-1-1.98-1.5-3.42-1.5c-1.43,0-2.57,0.5-3.41,1.5c-0.84,1-1.26,2.27-1.26,3.82V78.5z
		 M3.36,81.25c-0.43-0.71-0.64-1.6-0.64-2.67v-0.41c0-1.04,0.21-1.92,0.64-2.64c0.43-0.72,1.14-1.08,2.14-1.08
		c0.44,0,0.84,0.07,1.2,0.2c0.35,0.14,0.64,0.31,0.87,0.53l0.42,1.64H9.5l-0.09-2.32c-0.44-0.48-0.99-0.86-1.66-1.14
		c-0.67-0.28-1.42-0.42-2.25-0.42c-1.51,0-2.67,0.5-3.48,1.49c-0.8,0.99-1.21,2.23-1.21,3.72v0.41c0,1.5,0.4,2.75,1.2,3.74
		c0.8,0.99,1.96,1.49,3.48,1.49c1.11,0,2.08-0.35,2.91-1.05c0.83-0.7,1.23-1.5,1.2-2.4L9.6,80.3H7.89c0,0.57-0.24,1.04-0.72,1.43
		c-0.48,0.39-1.03,0.58-1.67,0.58C4.5,82.32,3.78,81.96,3.36,81.25"/>
</g>
<rect x="25.59" y="5.67" transform="matrix(0.7071 -0.7071 0.7071 0.7071 -1.2614 31.2186)" class="st0" width="22.93" height="22.93"/>
<rect x="8.59" y="22.67" transform="matrix(0.7071 -0.7071 0.7071 0.7071 -18.2652 24.1754)" class="st0" width="22.93" height="22.93"/>
<rect x="42.59" y="22.67" transform="matrix(0.7071 -0.7071 0.7071 0.7071 -8.3046 48.2224)" class="st0" width="22.93" height="22.93"/>
<polygon class="st1" points="10.45,61.71 37.09,35.08 63.72,61.71 "/>
</svg>
